<svg width="488" height="41" viewBox="0 0 488 41" fill="none" xmlns="http://www.w3.org/2000/svg">
<rect y="20" width="225.5" height="1" fill="#CBD4E6"/>
<path d="M240.504 26.162C239.652 26.162 238.914 25.976 238.29 25.604C237.666 25.232 237.18 24.71 236.832 24.038C236.496 23.354 236.328 22.55 236.328 21.626C236.328 20.702 236.496 19.904 236.832 19.232C237.18 18.548 237.666 18.02 238.29 17.648C238.914 17.276 239.652 17.09 240.504 17.09C241.344 17.09 242.076 17.276 242.7 17.648C243.336 18.02 243.822 18.548 244.158 19.232C244.506 19.904 244.68 20.702 244.68 21.626C244.68 22.55 244.506 23.354 244.158 24.038C243.822 24.71 243.336 25.232 242.7 25.604C242.076 25.976 241.344 26.162 240.504 26.162ZM240.504 24.992C241.32 24.992 241.974 24.704 242.466 24.128C242.958 23.54 243.204 22.706 243.204 21.626C243.204 20.534 242.958 19.7 242.466 19.124C241.974 18.548 241.32 18.26 240.504 18.26C239.676 18.26 239.016 18.548 238.524 19.124C238.044 19.7 237.804 20.534 237.804 21.626C237.804 22.706 238.044 23.54 238.524 24.128C239.016 24.704 239.676 24.992 240.504 24.992ZM246.87 26V17.252H248.292V18.818C248.76 17.762 249.72 17.18 251.172 17.072L251.694 17.018L251.802 18.278L250.884 18.386C250.056 18.458 249.426 18.722 248.994 19.178C248.562 19.622 248.346 20.234 248.346 21.014V26H246.87Z" fill="#7C8DB0"/>
<rect x="262.5" y="20" width="225.5" height="1" fill="#CBD4E6"/>
</svg>
